<?xml version="1.0" encoding="UTF-8" standalone="no"?>
<!-- Created with Inkscape (http://www.inkscape.org/) -->

<svg
   xmlns:dc="http://purl.org/dc/elements/1.1/"
   xmlns:cc="http://creativecommons.org/ns#"
   xmlns:rdf="http://www.w3.org/1999/02/22-rdf-syntax-ns#"
   xmlns:svg="http://www.w3.org/2000/svg"
   xmlns="http://www.w3.org/2000/svg"
   xmlns:sodipodi="http://sodipodi.sourceforge.net/DTD/sodipodi-0.dtd"
   xmlns:inkscape="http://www.inkscape.org/namespaces/inkscape"
   width="100mm"
   height="113.34734mm"
   viewBox="0 0 100 113.34734"
   version="1.1"
   id="svg8"
   inkscape:version="0.92.1 r15371"
   sodipodi:docname="css.svg">
  <defs
     id="defs2" />
  <sodipodi:namedview
     id="base"
     pagecolor="#f8c2fb"
     bordercolor="#666666"
     borderopacity="1.0"
     inkscape:pageopacity="0"
     inkscape:pageshadow="2"
     inkscape:zoom="0.5"
     inkscape:cx="220.25097"
     inkscape:cy="94.04021"
     inkscape:document-units="mm"
     inkscape:current-layer="layer1"
     showgrid="false"
     inkscape:snap-midpoints="false"
     inkscape:snap-global="true"
     inkscape:object-paths="true"
     inkscape:window-width="1366"
     inkscape:window-height="706"
     inkscape:window-x="-8"
     inkscape:window-y="-8"
     inkscape:window-maximized="1"
     fit-margin-top="0"
     fit-margin-left="0"
     fit-margin-right="0"
     fit-margin-bottom="0" />
  <metadata
     id="metadata5">
    <rdf:RDF>
      <cc:Work
         rdf:about="">
        <dc:format>image/svg+xml</dc:format>
        <dc:type
           rdf:resource="http://purl.org/dc/dcmitype/StillImage" />
        <dc:title></dc:title>
      </cc:Work>
    </rdf:RDF>
  </metadata>
  <g
     inkscape:label="Layer 1"
     inkscape:groupmode="layer"
     id="layer1"
     transform="translate(-130.366,2.0360184)">
    <path
       id="path4536"
       style="opacity:1;fill:#c427d8;stroke:none;stroke-width:0.92373133px;stroke-linecap:butt;stroke-linejoin:miter;stroke-opacity:1"
       d="m 148.39888,18.558892 c -1.6e-4,4.226528 -2.7e-4,8.453055 -3.8e-4,12.679637 16.64651,-0.0046 33.29302,-0.0024 49.93959,-0.0029 -0.365,4.387792 -0.73043,8.775584 -1.09438,13.163485 -10.98513,0 -21.97026,0 -32.95534,0 3.9e-4,3.956094 8.3e-4,7.912209 0.001,11.868358 10.65571,0 21.31147,0 31.96718,0 -0.45748,5.500061 -0.91435,11.000178 -1.37149,16.500295 -4.85265,1.299472 -9.70497,2.600039 -14.55763,3.899566 -4.59135,-1.230359 -9.18282,-2.460335 -13.77428,-3.690311 -0.27361,-3.286849 -0.54667,-6.573753 -0.82006,-9.860603 -4.54336,0 -9.08667,0 -13.63004,0 0.558,6.71986 1.11605,13.439665 1.67404,20.15947 9.07732,2.483756 18.15458,4.967512 27.23185,7.451322 8.64841,-2.483756 17.29682,-4.967566 25.94523,-7.451322 1.79202,-21.572489 3.58913,-43.144617 5.37847,-64.717325 -21.31136,1.09e-4 -42.62266,1.64e-4 -63.93402,3.28e-4 z M 130.366,-2.0360184 138.77878,99.60983 181.37129,111.31132 221.95607,99.60983 230.366,-2.0360184 Z m 8.3562,7.912242 h 83.2876 L 215.00528,93.334912 181.20444,103.40192 145.72951,93.334912 Z"
       inkscape:connector-curvature="0" />
  </g>
</svg>
