<?xml version="1.0" encoding="UTF-8" standalone="no"?>
<!-- Created with Inkscape (http://www.inkscape.org/) -->

<svg
   xmlns:dc="http://purl.org/dc/elements/1.1/"
   xmlns:cc="http://creativecommons.org/ns#"
   xmlns:rdf="http://www.w3.org/1999/02/22-rdf-syntax-ns#"
   xmlns:svg="http://www.w3.org/2000/svg"
   xmlns="http://www.w3.org/2000/svg"
   xmlns:sodipodi="http://sodipodi.sourceforge.net/DTD/sodipodi-0.dtd"
   xmlns:inkscape="http://www.inkscape.org/namespaces/inkscape"
   width="138.91176mm"
   height="15.5568mm"
   viewBox="0 0 138.91176 15.5568"
   version="1.1"
   id="svg8"
   inkscape:version="0.92.1 r15371"
   sodipodi:docname="dmitri-klassen.svg">
  <defs
     id="defs2" />
  <sodipodi:namedview
     id="base"
     pagecolor="#ffffff"
     bordercolor="#666666"
     borderopacity="1.0"
     inkscape:pageopacity="0.0"
     inkscape:pageshadow="2"
     inkscape:zoom="1.979899"
     inkscape:cx="370.74902"
     inkscape:cy="34.85292"
     inkscape:document-units="mm"
     inkscape:current-layer="layer1"
     showgrid="false"
     showborder="false"
     inkscape:window-width="1280"
     inkscape:window-height="961"
     inkscape:window-x="-8"
     inkscape:window-y="-8"
     inkscape:window-maximized="1"
     fit-margin-top="0"
     fit-margin-left="0"
     fit-margin-right="0"
     fit-margin-bottom="0" />
  <metadata
     id="metadata5">
    <rdf:RDF>
      <cc:Work
         rdf:about="">
        <dc:format>image/svg+xml</dc:format>
        <dc:type
           rdf:resource="http://purl.org/dc/dcmitype/StillImage" />
        <dc:title></dc:title>
      </cc:Work>
    </rdf:RDF>
  </metadata>
  <g
     inkscape:label="Layer 1"
     inkscape:groupmode="layer"
     id="layer1"
     transform="translate(-5.8596046e-7,-280.74303)">
    <path
       style="opacity:1;fill:none;stroke:#000000;stroke-width:0.69999999;stroke-linecap:square;stroke-linejoin:bevel;stroke-miterlimit:4;stroke-dasharray:none;stroke-opacity:1"
       d="M 2.13,281.238 H 0.35000058 v 14.433 l 1.77975082,-9e-5 c 1.5821445,0 3.5712471,-0.49079 5.2360741,-2.57248 0.776255,-1.06713 1.556071,-2.1258 1.637026,-4.84428 -0.03991,-1.78028 -0.685226,-3.23034 -1.703843,-4.47678 C 6.2185385,282.72188 4.8883164,281.238 2.13,281.238 Z"
       id="path4504"
       inkscape:connector-curvature="0"
       sodipodi:nodetypes="cccccccc" />
    <path
       style="fill:none;stroke:#000000;stroke-width:0.69999999;stroke-linecap:square;stroke-linejoin:bevel;stroke-miterlimit:4;stroke-dasharray:none;stroke-opacity:1"
       d="m 12.811442,295.671 v -11.86 l 5.07812,5.17815 5.044713,-5.17815 v 11.85991 h -8.146972"
       id="path4506"
       inkscape:connector-curvature="0"
       sodipodi:nodetypes="cccccc" />
    <path
       style="fill:none;stroke:#000000;stroke-width:0.69999999;stroke-linecap:square;stroke-linejoin:bevel;stroke-miterlimit:4;stroke-dasharray:none;stroke-opacity:1"
       d="m 27.611492,283.811 v 11.86"
       id="path4508"
       inkscape:connector-curvature="0"
       sodipodi:nodetypes="cc" />
    <path
       style="fill:none;stroke:#000000;stroke-width:0.69999999;stroke-linecap:square;stroke-linejoin:bevel;stroke-miterlimit:4;stroke-dasharray:none;stroke-opacity:1"
       d="m 30.351004,283.811 h 9.588294"
       id="path4510"
       inkscape:connector-curvature="0"
       sodipodi:nodetypes="cc" />
    <path
       style="fill:none;stroke:#000000;stroke-width:0.69999999;stroke-linecap:square;stroke-linejoin:bevel;stroke-miterlimit:4;stroke-dasharray:none;stroke-opacity:1"
       d="m 35.128447,295.671 v -11.86"
       id="path4512"
       inkscape:connector-curvature="0"
       sodipodi:nodetypes="cc" />
    <path
       style="fill:none;stroke:#000000;stroke-width:0.69999999;stroke-linecap:square;stroke-linejoin:bevel;stroke-miterlimit:4;stroke-dasharray:none;stroke-opacity:1"
       d="m 42.678811,295.671 v -11.86 h 2.605878 c 1.48159,0.0584 2.45285,0.54105 3.107008,1.03545 0.479936,0.42876 1.113746,0.81522 1.102486,2.00453 -0.03273,0.76565 -0.255493,1.49561 -0.955013,2.02815 -0.356413,0.36191 -0.883031,0.63871 -1.417003,0.91183 l 2.939965,5.88004"
       id="path4514"
       inkscape:connector-curvature="0"
       sodipodi:nodetypes="cccccccc" />
    <path
       style="fill:none;stroke:#000000;stroke-width:0.69999999;stroke-linecap:square;stroke-linejoin:bevel;stroke-miterlimit:4;stroke-dasharray:none;stroke-opacity:1"
       d="m 53.603453,295.671 v -11.86"
       id="path4516"
       inkscape:connector-curvature="0"
       sodipodi:nodetypes="cc" />
    <path
       style="fill:none;stroke:#000000;stroke-width:0.69999999;stroke-linecap:square;stroke-linejoin:bevel;stroke-miterlimit:4;stroke-dasharray:none;stroke-opacity:1"
       d="M 64.594912,295.671 V 281.238"
       id="path4518"
       inkscape:connector-curvature="0"
       sodipodi:nodetypes="cc" />
    <path
       style="fill:none;stroke:#000000;stroke-width:0.69999999;stroke-linecap:square;stroke-linejoin:bevel;stroke-miterlimit:4;stroke-dasharray:none;stroke-opacity:1"
       d="m 73.080718,281.238 -6.99912,6.93263 7.483548,7.50037"
       id="path4520"
       inkscape:connector-curvature="0"
       sodipodi:nodetypes="ccc" />
    <path
       style="fill:none;stroke:#000000;stroke-width:0.69999999;stroke-linecap:square;stroke-linejoin:bevel;stroke-miterlimit:4;stroke-dasharray:none;stroke-opacity:1"
       d="m 76.588633,283.811 v 11.85991 h 6.781964"
       id="path4522"
       inkscape:connector-curvature="0"
       sodipodi:nodetypes="ccc" />
    <path
       style="fill:none;stroke:#000000;stroke-width:0.69999999;stroke-linecap:square;stroke-linejoin:bevel;stroke-miterlimit:4;stroke-dasharray:none;stroke-opacity:1"
       d="m 84.506493,295.671 4.977894,-11.86 4.777441,11.85991 H 86.8451"
       id="path4524"
       inkscape:connector-curvature="0"
       sodipodi:nodetypes="cccc" />
    <path
       style="fill:none;stroke:#000000;stroke-width:0.69999999;stroke-linecap:square;stroke-linejoin:bevel;stroke-miterlimit:4;stroke-dasharray:none;stroke-opacity:1"
       d="m 103.83113,284.6725 c -1.62022,-1.03131 -2.84699,-0.89234 -3.2128,-0.92132 -1.713134,0.0158 -2.316026,0.34548 -3.047427,0.96857 -0.522177,0.52994 -0.707776,1.10772 -0.72971,1.72452 0.0187,0.60081 0.01355,1.19576 0.706086,1.84264 0.683228,0.66844 1.992867,1.1072 3.330911,1.53554 1.1723,0.34469 2.21224,0.52188 3.03604,1.31701 0.53774,0.53041 0.85842,0.97646 0.82641,1.81902 -0.0957,0.80439 -0.36931,1.4046 -0.82092,1.83083 -0.95624,0.79018 -2.15747,1.14864 -3.60849,1.12802 -1.509691,0.006 -2.694044,-0.31401 -3.56715,-0.94494"
       id="path4526"
       inkscape:connector-curvature="0"
       sodipodi:nodetypes="ccccccccccc" />
    <path
       sodipodi:nodetypes="ccccccccccc"
       inkscape:connector-curvature="0"
       id="path4530"
       d="m 114.78918,284.6725 c -1.62022,-1.03131 -2.84699,-0.89234 -3.2128,-0.92132 -1.71313,0.0158 -2.31603,0.34548 -3.04743,0.96857 -0.52217,0.52994 -0.70777,1.10772 -0.72971,1.72452 0.0187,0.60081 0.0136,1.19576 0.70609,1.84264 0.68323,0.66844 1.99287,1.1072 3.33092,1.53554 1.17229,0.34469 2.21223,0.52188 3.03604,1.31701 0.53773,0.53041 0.85841,0.97646 0.8264,1.81902 -0.0957,0.80439 -0.36931,1.4046 -0.82092,1.83083 -0.95624,0.79018 -2.15747,1.14864 -3.60849,1.12802 -1.50969,0.006 -2.69404,-0.31401 -3.56715,-0.94494"
       style="fill:none;stroke:#000000;stroke-width:0.69999999;stroke-linecap:square;stroke-linejoin:bevel;stroke-miterlimit:4;stroke-dasharray:none;stroke-opacity:1" />
    <path
       style="fill:none;stroke:#000000;stroke-width:0.69999999;stroke-linecap:square;stroke-linejoin:bevel;stroke-miterlimit:4;stroke-dasharray:none;stroke-opacity:1"
       d="m 122.13935,289.72795 5.1263,-4.46486 c -0.4084,-0.47326 -0.93814,-0.85753 -1.58277,-1.15755 -0.52027,-0.25285 -1.28711,-0.36505 -2.17336,-0.35436 -1.39649,0.004 -2.2096,0.20495 -2.71671,0.54335 -0.54884,0.39229 -0.70756,0.60977 -0.97202,1.01509 -0.37951,0.61045 -0.63482,1.30438 -0.7584,1.96738 -0.13609,0.85569 -0.16354,1.5917 -0.15946,2.61632 0.0141,1.01475 0.0117,1.99427 0.28349,3.09469 0.13359,0.48065 0.27985,0.81382 0.54334,1.2048 0.24698,0.36473 0.54264,0.70512 0.89769,1.01581 0.83562,0.52622 1.66364,0.73523 2.95294,0.74119 0.83735,0.002 1.62183,-0.1403 2.4096,-0.48132 0.38588,-0.18312 0.67143,-0.44647 0.96856,-0.75596"
       id="path4532"
       inkscape:connector-curvature="0"
       sodipodi:nodetypes="cccccccccccccc" />
    <path
       style="fill:none;stroke:#000000;stroke-width:0.69999999;stroke-linecap:square;stroke-linejoin:bevel;stroke-miterlimit:4;stroke-dasharray:none;stroke-opacity:1"
       d="m 130.94457,295.671 v -11.98441 l 7.61719,12.14977 V 283.811"
       id="path4534"
       inkscape:connector-curvature="0"
       sodipodi:nodetypes="cccc" />
  </g>
</svg>
