<?xml version="1.0" encoding="UTF-8" standalone="no"?>
<!-- Created with Inkscape (http://www.inkscape.org/) -->

<svg
   xmlns:dc="http://purl.org/dc/elements/1.1/"
   xmlns:cc="http://creativecommons.org/ns#"
   xmlns:rdf="http://www.w3.org/1999/02/22-rdf-syntax-ns#"
   xmlns:svg="http://www.w3.org/2000/svg"
   xmlns="http://www.w3.org/2000/svg"
   xmlns:sodipodi="http://sodipodi.sourceforge.net/DTD/sodipodi-0.dtd"
   xmlns:inkscape="http://www.inkscape.org/namespaces/inkscape"
   width="100mm"
   height="99.836082mm"
   viewBox="0 0 99.999999 99.836082"
   version="1.1"
   id="svg8"
   inkscape:version="0.92.1 r15371"
   sodipodi:docname="git.svg">
  <defs
     id="defs2" />
  <sodipodi:namedview
     id="base"
     pagecolor="#f8c2fb"
     bordercolor="#666666"
     borderopacity="1.0"
     inkscape:pageopacity="0"
     inkscape:pageshadow="2"
     inkscape:zoom="0.35355339"
     inkscape:cx="-34.825566"
     inkscape:cy="-139.53986"
     inkscape:document-units="mm"
     inkscape:current-layer="layer1"
     showgrid="false"
     inkscape:snap-midpoints="false"
     inkscape:snap-global="true"
     inkscape:object-paths="true"
     inkscape:window-width="1366"
     inkscape:window-height="706"
     inkscape:window-x="-8"
     inkscape:window-y="-8"
     inkscape:window-maximized="1"
     fit-margin-top="0"
     fit-margin-left="0"
     fit-margin-right="0"
     fit-margin-bottom="0" />
  <metadata
     id="metadata5">
    <rdf:RDF>
      <cc:Work
         rdf:about="">
        <dc:format>image/svg+xml</dc:format>
        <dc:type
           rdf:resource="http://purl.org/dc/dcmitype/StillImage" />
        <dc:title></dc:title>
      </cc:Work>
    </rdf:RDF>
  </metadata>
  <g
     inkscape:label="Layer 1"
     inkscape:groupmode="layer"
     id="layer1"
     transform="translate(-36.341287,-156.05337)">
    <path
       style="opacity:1;fill:#c427d8;stroke:none;stroke-width:0.45987543px;stroke-linecap:butt;stroke-linejoin:miter;stroke-opacity:1"
       d="m 68.246731,171.50118 11.300041,11.2594 c -1.473269,4.47249 0.342723,8.45106 4.268002,10.03996 v 27.41642 c -4.978843,2.36488 -5.823463,7.19903 -3.575855,11.31725 2.563085,4.37894 9.832121,4.83859 12.743987,0.0209 2.673232,-4.25376 1.256981,-8.62003 -3.043488,-11.28061 v -27.01768 l 10.404692,10.40468 c -1.403827,4.638 0.42778,8.72637 4.7712,10.11726 5.76733,1.91903 11.43469,-3.62508 9.51368,-9.51368 -1.13068,-3.11518 -4.29646,-6.25743 -9.68614,-4.85743 L 93.819617,188.28437 c 1.927076,-6.2132 -3.268542,-11.61638 -9.74361,-9.74361 l -11.468145,-11.46814 9.45619,-9.3987 c 2.34846,-2.18387 6.598417,-2.13748 8.565179,0 l 43.889369,43.88936 c 2.62582,2.49701 2.22649,7.08286 0,9.16877 l -43.38638,43.38633 c -3.205115,2.72126 -7.419527,1.97206 -9.298107,0 L 37.865709,210.14999 c -1.95831,-1.92174 -2.105483,-6.28051 0,-8.32804 z"
       id="path4617"
       inkscape:connector-curvature="0"
       sodipodi:nodetypes="cccccccccccccccccccccccc" />
  </g>
</svg>
