<?xml version="1.0" encoding="UTF-8" standalone="no"?>
<!-- Created with Inkscape (http://www.inkscape.org/) -->

<svg
   xmlns:dc="http://purl.org/dc/elements/1.1/"
   xmlns:cc="http://creativecommons.org/ns#"
   xmlns:rdf="http://www.w3.org/1999/02/22-rdf-syntax-ns#"
   xmlns:svg="http://www.w3.org/2000/svg"
   xmlns="http://www.w3.org/2000/svg"
   xmlns:sodipodi="http://sodipodi.sourceforge.net/DTD/sodipodi-0.dtd"
   xmlns:inkscape="http://www.inkscape.org/namespaces/inkscape"
   width="57.533691mm"
   height="57.439384mm"
   viewBox="0 0 57.533691 57.439384"
   version="1.1"
   id="svg8"
   inkscape:version="0.92.1 r15371"
   sodipodi:docname="git.svg">
  <defs
     id="defs2" />
  <sodipodi:namedview
     id="base"
     pagecolor="#f8c2fb"
     bordercolor="#666666"
     borderopacity="1.0"
     inkscape:pageopacity="0"
     inkscape:pageshadow="2"
     inkscape:zoom="0.35355339"
     inkscape:cx="-34.825565"
     inkscape:cy="-139.53984"
     inkscape:document-units="mm"
     inkscape:current-layer="layer1"
     showgrid="false"
     inkscape:snap-midpoints="false"
     inkscape:snap-global="true"
     inkscape:object-paths="true"
     inkscape:window-width="1280"
     inkscape:window-height="961"
     inkscape:window-x="-8"
     inkscape:window-y="-8"
     inkscape:window-maximized="1"
     fit-margin-top="0"
     fit-margin-left="0"
     fit-margin-right="0"
     fit-margin-bottom="0" />
  <metadata
     id="metadata5">
    <rdf:RDF>
      <cc:Work
         rdf:about="">
        <dc:format>image/svg+xml</dc:format>
        <dc:type
           rdf:resource="http://purl.org/dc/dcmitype/StillImage" />
        <dc:title></dc:title>
      </cc:Work>
    </rdf:RDF>
  </metadata>
  <g
     inkscape:label="Layer 1"
     inkscape:groupmode="layer"
     id="layer1"
     transform="translate(-36.341287,-198.45007)">
    <path
       style="opacity:1;fill:#c427d8;stroke:none;stroke-width:0.26458332px;stroke-linecap:butt;stroke-linejoin:miter;stroke-opacity:1"
       d="m 54.697667,207.33776 6.501331,6.47795 c -0.847626,2.57319 0.197181,4.86221 2.455539,5.77636 v 15.77368 c -2.864512,1.3606 -3.350453,4.14187 -2.057321,6.51123 1.474637,2.51937 5.656782,2.78382 7.332086,0.012 1.538009,-2.44734 0.723188,-4.95942 -1.751031,-6.49015 v -15.54427 l 5.986201,5.9862 c -0.807671,2.66841 0.24612,5.0206 2.74505,5.82083 3.31816,1.10409 6.5788,-2.08564 5.47357,-5.47357 -0.65052,-1.79228 -2.47191,-3.60013 -5.57279,-2.79466 l -6.399609,-6.39961 c 1.108718,-3.57468 -1.880513,-6.68333 -5.605859,-5.60586 l -6.598047,-6.59804 5.440495,-5.40742 c 1.351156,-1.25646 3.796313,-1.22977 4.927864,0 l 25.251176,25.25117 c 1.51073,1.43662 1.28098,4.07503 0,5.27513 l -24.961788,24.96176 c -1.844021,1.56564 -4.268728,1.1346 -5.349544,0 L 37.218343,229.57385 c -1.126688,-1.10565 -1.211362,-3.61341 0,-4.79143 z"
       id="path4617"
       inkscape:connector-curvature="0"
       sodipodi:nodetypes="cccccccccccccccccccccccc" />
  </g>
</svg>
