<?xml version="1.0" encoding="UTF-8" standalone="no"?>
<!-- Created with Inkscape (http://www.inkscape.org/) -->

<svg
   xmlns:dc="http://purl.org/dc/elements/1.1/"
   xmlns:cc="http://creativecommons.org/ns#"
   xmlns:rdf="http://www.w3.org/1999/02/22-rdf-syntax-ns#"
   xmlns:svg="http://www.w3.org/2000/svg"
   xmlns="http://www.w3.org/2000/svg"
   xmlns:sodipodi="http://sodipodi.sourceforge.net/DTD/sodipodi-0.dtd"
   xmlns:inkscape="http://www.inkscape.org/namespaces/inkscape"
   width="100mm"
   height="113.34727mm"
   viewBox="0 0 99.999997 113.34727"
   version="1.1"
   id="svg8"
   inkscape:version="0.92.1 r15371"
   sodipodi:docname="html.svg">
  <defs
     id="defs2" />
  <sodipodi:namedview
     id="base"
     pagecolor="#f8c2fb"
     bordercolor="#666666"
     borderopacity="1.0"
     inkscape:pageopacity="0"
     inkscape:pageshadow="2"
     inkscape:zoom="0.70710678"
     inkscape:cx="402.33302"
     inkscape:cy="346.24829"
     inkscape:document-units="mm"
     inkscape:current-layer="layer1"
     showgrid="false"
     inkscape:snap-midpoints="false"
     inkscape:snap-global="true"
     inkscape:object-paths="true"
     inkscape:window-width="1366"
     inkscape:window-height="706"
     inkscape:window-x="-8"
     inkscape:window-y="-8"
     inkscape:window-maximized="1"
     fit-margin-top="0"
     fit-margin-left="0"
     fit-margin-right="0"
     fit-margin-bottom="0" />
  <metadata
     id="metadata5">
    <rdf:RDF>
      <cc:Work
         rdf:about="">
        <dc:format>image/svg+xml</dc:format>
        <dc:type
           rdf:resource="http://purl.org/dc/dcmitype/StillImage" />
        <dc:title></dc:title>
      </cc:Work>
    </rdf:RDF>
  </metadata>
  <g
     inkscape:label="Layer 1"
     inkscape:groupmode="layer"
     id="layer1"
     transform="translate(-28.368927,-66.219794)">
    <path
       id="path4500"
       style="fill:#c427d8;stroke:none;stroke-width:0.92373115px;stroke-linecap:butt;stroke-linejoin:miter;stroke-opacity:1"
       d="m 46.401914,86.814761 3.133191,37.708949 h 44.72474 l -1.37197,16.50145 c -5.005238,1.34041 -9.551892,2.558 -14.557154,3.89836 -4.611219,-1.23572 -9.165363,-2.45623 -13.775598,-3.69167 l -0.818744,-9.85919 H 50.106343 c 0.557995,6.71981 1.116045,13.43966 1.67404,20.15946 9.077316,2.48375 18.154578,4.96757 27.23184,7.45132 8.648406,-2.48375 17.296844,-4.96757 25.945247,-7.45132 l 3.23218,-38.87681 H 62.291403 L 61.27621,99.491878 h 48.00498 c 0.35185,-4.225706 0.70317,-8.451412 1.05475,-12.677117 z m -18.032987,-20.594967 8.412778,101.645776 42.5925,11.70149 40.584785,-11.70149 8.40994,-101.645776 z m 8.356197,7.912213 h 83.287616 l -7.00454,87.458653 -33.80084,10.067 -35.474927,-10.067 z"
       inkscape:connector-curvature="0" />
  </g>
</svg>
