<?xml version="1.0" encoding="UTF-8" standalone="no"?>
<!-- Created with Inkscape (http://www.inkscape.org/) -->

<svg
   xmlns:dc="http://purl.org/dc/elements/1.1/"
   xmlns:cc="http://creativecommons.org/ns#"
   xmlns:rdf="http://www.w3.org/1999/02/22-rdf-syntax-ns#"
   xmlns:svg="http://www.w3.org/2000/svg"
   xmlns="http://www.w3.org/2000/svg"
   xmlns:sodipodi="http://sodipodi.sourceforge.net/DTD/sodipodi-0.dtd"
   xmlns:inkscape="http://www.inkscape.org/namespaces/inkscape"
   width="18.27433mm"
   height="20.713469mm"
   viewBox="0 0 18.27433 20.713469"
   version="1.1"
   id="svg8"
   inkscape:version="0.92.1 r15371"
   sodipodi:docname="javascript.svg">
  <defs
     id="defs2" />
  <sodipodi:namedview
     id="base"
     pagecolor="#f8c2fb"
     bordercolor="#666666"
     borderopacity="1.0"
     inkscape:pageopacity="0"
     inkscape:pageshadow="2"
     inkscape:zoom="0.5"
     inkscape:cx="-406.4268"
     inkscape:cy="-296.06497"
     inkscape:document-units="mm"
     inkscape:current-layer="layer1"
     showgrid="false"
     inkscape:snap-midpoints="false"
     inkscape:snap-global="true"
     inkscape:object-paths="true"
     inkscape:window-width="1280"
     inkscape:window-height="961"
     inkscape:window-x="-8"
     inkscape:window-y="-8"
     inkscape:window-maximized="1"
     fit-margin-top="0"
     fit-margin-left="0"
     fit-margin-right="0"
     fit-margin-bottom="0" />
  <metadata
     id="metadata5">
    <rdf:RDF>
      <cc:Work
         rdf:about="">
        <dc:format>image/svg+xml</dc:format>
        <dc:type
           rdf:resource="http://purl.org/dc/dcmitype/StillImage" />
        <dc:title></dc:title>
      </cc:Work>
    </rdf:RDF>
  </metadata>
  <g
     inkscape:label="Layer 1"
     inkscape:groupmode="layer"
     id="layer1"
     transform="translate(-109.37866,-83.161692)">
    <path
       id="path4528"
       style="opacity:1;fill:#c427d8;stroke:none;stroke-width:0.16880581px;stroke-linecap:butt;stroke-linejoin:miter;stroke-opacity:1"
       d="m 113.93739,85.507872 -0.69075,8.308464 h 8.17314 c -0.0556,0.9977 -0.25071,3.01554 -0.25071,3.01554 -0.91467,0.24495 -2.66022,0.7124 -2.66022,0.7124 l -2.51741,-0.67464 -0.14961,-1.80169 h -2.49081 c 0,0 0.20395,2.45601 0.30593,3.68401 l 4.97644,1.361674 4.74131,-1.361674 c 0.19689,-2.36816 0.59066,-7.104484 0.59066,-7.104484 h -7.86788 l 0.31193,-3.75208 h 4.96159 l 0.21433,2.58104 2.31311,0.0429 -0.41615,-5.01135 z m -4.55873,-2.34618 1.53738,18.575098 7.78349,2.13837 7.4166,-2.13837 1.53686,-18.575098 z m 1.52704,1.4459 h 15.22025 l -1.28002,15.982498 -6.17689,1.83968 -6.4828,-1.83968 z"
       inkscape:connector-curvature="0" />
  </g>
</svg>
