<?xml version="1.0" encoding="UTF-8" standalone="no"?>
<!-- Created with Inkscape (http://www.inkscape.org/) -->

<svg
   xmlns:dc="http://purl.org/dc/elements/1.1/"
   xmlns:cc="http://creativecommons.org/ns#"
   xmlns:rdf="http://www.w3.org/1999/02/22-rdf-syntax-ns#"
   xmlns:svg="http://www.w3.org/2000/svg"
   xmlns="http://www.w3.org/2000/svg"
   xmlns:sodipodi="http://sodipodi.sourceforge.net/DTD/sodipodi-0.dtd"
   xmlns:inkscape="http://www.inkscape.org/namespaces/inkscape"
   width="51.558155mm"
   height="48.482735mm"
   viewBox="0 0 51.558155 48.482735"
   version="1.1"
   id="svg8"
   inkscape:version="0.92.1 r15371"
   sodipodi:docname="jquery.svg">
  <defs
     id="defs2" />
  <sodipodi:namedview
     id="base"
     pagecolor="#f8c2fb"
     bordercolor="#666666"
     borderopacity="1.0"
     inkscape:pageopacity="0"
     inkscape:pageshadow="2"
     inkscape:zoom="0.35355339"
     inkscape:cx="102.52733"
     inkscape:cy="15.838617"
     inkscape:document-units="mm"
     inkscape:current-layer="layer1"
     showgrid="false"
     inkscape:snap-midpoints="false"
     inkscape:snap-global="true"
     inkscape:object-paths="true"
     inkscape:window-width="1280"
     inkscape:window-height="961"
     inkscape:window-x="-8"
     inkscape:window-y="-8"
     inkscape:window-maximized="1"
     fit-margin-top="0"
     fit-margin-left="0"
     fit-margin-right="0"
     fit-margin-bottom="0" />
  <metadata
     id="metadata5">
    <rdf:RDF>
      <cc:Work
         rdf:about="">
        <dc:format>image/svg+xml</dc:format>
        <dc:type
           rdf:resource="http://purl.org/dc/dcmitype/StillImage" />
        <dc:title></dc:title>
      </cc:Work>
    </rdf:RDF>
  </metadata>
  <g
     inkscape:label="Layer 1"
     inkscape:groupmode="layer"
     id="layer1"
     transform="translate(-77.706234,-119.19137)">
    <path
       id="path4578"
       style="opacity:1;fill:#c427d8;stroke:none;stroke-width:0.58842027px;stroke-linecap:butt;stroke-linejoin:miter;stroke-opacity:1"
       d="m 83.379075,126.6021 c -2.977126,12.36158 1.802901,21.04684 6.662889,25.71346 5.974427,5.35255 12.637236,8.90867 19.401136,9.08749 7.66539,0.38023 13.39411,-2.33063 18.27203,-6.50303 -2.59672,7.06021 -10.02354,11.82679 -18.10178,12.67865 -9.4933,0.57268 -16.829889,-1.3195 -24.03327,-8.74666 -7.009358,-7.01011 -9.625398,-17.34327 -6.683276,-25.4953 0.88168,-2.31581 2.728753,-4.98249 4.482271,-6.73461 z m 13.344316,-4.63035 c -1.34033,6.91315 -0.40166,13.62186 4.859259,18.47236 3.96234,3.72351 9.33661,6.52781 14.29118,6.69399 5.7439,0.0364 9.68617,-2.40845 13.39056,-5.58481 -2.04353,5.488 -6.78509,8.87074 -13.27161,9.85149 -6.11588,0.76291 -11.83037,-0.54342 -17.696819,-6.16055 -5.1632,-5.16375 -6.79222,-12.49552 -4.52164,-18.70714 0.64945,-1.70587 1.6574,-3.2747 2.94907,-4.56534 z m 11.082709,-2.78038 c -0.69454,4.12653 -0.0726,8.45732 4.86234,12.41672 4.68671,3.4725 9.20849,4.05404 14.12608,1.53176 -3.14923,5.41886 -11.22164,5.1639 -15.74663,1.88035 -4.32491,-3.13836 -8.00919,-9.91766 -3.24179,-15.82883 z"
       inkscape:connector-curvature="0" />
  </g>
</svg>
