<?xml version="1.0" encoding="UTF-8" standalone="no"?>
<!-- Created with Inkscape (http://www.inkscape.org/) -->

<svg
   xmlns:dc="http://purl.org/dc/elements/1.1/"
   xmlns:cc="http://creativecommons.org/ns#"
   xmlns:rdf="http://www.w3.org/1999/02/22-rdf-syntax-ns#"
   xmlns:svg="http://www.w3.org/2000/svg"
   xmlns="http://www.w3.org/2000/svg"
   xmlns:sodipodi="http://sodipodi.sourceforge.net/DTD/sodipodi-0.dtd"
   xmlns:inkscape="http://www.inkscape.org/namespaces/inkscape"
   width="100mm"
   height="94.035042mm"
   viewBox="0 0 100 94.035042"
   version="1.1"
   id="svg8"
   inkscape:version="0.92.1 r15371"
   sodipodi:docname="jquery.svg">
  <defs
     id="defs2" />
  <sodipodi:namedview
     id="base"
     pagecolor="#f8c2fb"
     bordercolor="#666666"
     borderopacity="1.0"
     inkscape:pageopacity="0"
     inkscape:pageshadow="2"
     inkscape:zoom="0.35355339"
     inkscape:cx="102.52733"
     inkscape:cy="15.838616"
     inkscape:document-units="mm"
     inkscape:current-layer="layer1"
     showgrid="false"
     inkscape:snap-midpoints="false"
     inkscape:snap-global="true"
     inkscape:object-paths="true"
     inkscape:window-width="1366"
     inkscape:window-height="706"
     inkscape:window-x="-8"
     inkscape:window-y="-8"
     inkscape:window-maximized="1"
     fit-margin-top="0"
     fit-margin-left="0"
     fit-margin-right="0"
     fit-margin-bottom="0" />
  <metadata
     id="metadata5">
    <rdf:RDF>
      <cc:Work
         rdf:about="">
        <dc:format>image/svg+xml</dc:format>
        <dc:type
           rdf:resource="http://purl.org/dc/dcmitype/StillImage" />
        <dc:title></dc:title>
      </cc:Work>
    </rdf:RDF>
  </metadata>
  <g
     inkscape:label="Layer 1"
     inkscape:groupmode="layer"
     id="layer1"
     transform="translate(-77.706234,-73.63906)">
    <path
       id="path4578"
       style="opacity:1;fill:#c427d8;stroke:none;stroke-width:1.14127481px;stroke-linecap:butt;stroke-linejoin:miter;stroke-opacity:1"
       d="m 88.709035,88.012596 c -5.774307,23.975994 3.49683,40.821554 12.923055,49.872734 11.58774,10.38157 24.51064,17.27887 37.62962,17.6257 14.86746,0.73748 25.97864,-4.52039 35.43965,-12.613 -5.03649,13.69369 -19.44124,22.93874 -35.10945,24.59097 -18.41279,1.11075 -32.64253,-2.55924 -46.6139,-16.96465 -13.595052,-13.59651 -18.669011,-33.63826 -12.962597,-49.44959 1.710069,-4.491648 5.292573,-9.663827 8.693622,-13.062164 z M 114.5911,79.031767 c -2.59965,13.40845 -0.77904,26.420383 9.42481,35.828203 7.68519,7.22196 18.10889,12.66106 27.71856,12.98338 11.14063,0.0706 18.78689,-4.67133 25.97176,-10.83206 -3.96354,10.64429 -13.16007,17.2053 -25.74104,19.10753 -11.8621,1.4797 -22.94569,-1.054 -34.324,-11.94874 -10.01432,-10.01539 -13.1739,-24.235782 -8.76998,-36.283575 1.25965,-3.308632 3.21462,-6.351468 5.71989,-8.854738 z m 21.49555,-5.392707 c -1.3471,8.003642 -0.14081,16.403457 9.43079,24.082941 9.09014,6.735109 17.86039,7.863039 27.39834,2.970939 -6.10811,10.51019 -21.76501,10.01568 -30.54149,3.64704 C 133.98588,98.252954 126.84,85.104113 136.08665,73.63906 Z"
       inkscape:connector-curvature="0" />
  </g>
</svg>
