<?xml version="1.0" encoding="UTF-8" standalone="no"?>
<!-- Created with Inkscape (http://www.inkscape.org/) -->

<svg
   xmlns:dc="http://purl.org/dc/elements/1.1/"
   xmlns:cc="http://creativecommons.org/ns#"
   xmlns:rdf="http://www.w3.org/1999/02/22-rdf-syntax-ns#"
   xmlns:svg="http://www.w3.org/2000/svg"
   xmlns="http://www.w3.org/2000/svg"
   xmlns:sodipodi="http://sodipodi.sourceforge.net/DTD/sodipodi-0.dtd"
   xmlns:inkscape="http://www.inkscape.org/namespaces/inkscape"
   width="100mm"
   height="100.00002mm"
   viewBox="0 0 100 100.00002"
   version="1.1"
   id="svg8"
   inkscape:version="0.92.1 r15371"
   sodipodi:docname="more.svg">
  <defs
     id="defs2" />
  <sodipodi:namedview
     id="base"
     pagecolor="#f8c2fb"
     bordercolor="#666666"
     borderopacity="1.0"
     inkscape:pageopacity="0"
     inkscape:pageshadow="2"
     inkscape:zoom="0.35355339"
     inkscape:cx="268.04635"
     inkscape:cy="32.050681"
     inkscape:document-units="mm"
     inkscape:current-layer="layer1"
     showgrid="false"
     inkscape:snap-midpoints="false"
     inkscape:snap-global="false"
     inkscape:object-paths="true"
     inkscape:window-width="1366"
     inkscape:window-height="706"
     inkscape:window-x="-8"
     inkscape:window-y="-8"
     inkscape:window-maximized="1"
     fit-margin-top="0"
     fit-margin-left="0"
     fit-margin-right="0"
     fit-margin-bottom="0" />
  <metadata
     id="metadata5">
    <rdf:RDF>
      <cc:Work
         rdf:about="">
        <dc:format>image/svg+xml</dc:format>
        <dc:type
           rdf:resource="http://purl.org/dc/dcmitype/StillImage" />
        <dc:title></dc:title>
      </cc:Work>
    </rdf:RDF>
  </metadata>
  <g
     inkscape:label="Layer 1"
     inkscape:groupmode="layer"
     id="layer1"
     transform="translate(-107.30387,-136.82919)">
    <path
       style="opacity:1;fill:#c427d8;fill-opacity:1;stroke:none;stroke-width:2.03935647;stroke-linecap:round;stroke-linejoin:round;stroke-miterlimit:4;stroke-dasharray:none"
       d="M 188.97656 0 A 188.9762 188.9762 0 0 0 0 188.97656 A 188.9762 188.9762 0 0 0 188.97656 377.95312 A 188.9762 188.9762 0 0 0 377.95312 188.97656 A 188.9762 188.9762 0 0 0 188.97656 0 z M 174.83398 88.568359 L 203.11914 88.568359 L 203.11914 174.83398 L 289.38477 174.83398 L 289.38477 203.11914 L 203.11914 203.11914 L 203.11914 289.38477 L 174.83398 289.38477 L 174.83398 203.11914 L 88.568359 203.11914 L 88.568359 174.83398 L 174.83398 174.83398 L 174.83398 88.568359 z "
       transform="matrix(0.26458333,0,0,0.26458333,107.30387,136.82919)"
       id="path4662" />
  </g>
</svg>
