<?xml version="1.0" encoding="UTF-8" standalone="no"?>
<!-- Created with Inkscape (http://www.inkscape.org/) -->

<svg
   xmlns:dc="http://purl.org/dc/elements/1.1/"
   xmlns:cc="http://creativecommons.org/ns#"
   xmlns:rdf="http://www.w3.org/1999/02/22-rdf-syntax-ns#"
   xmlns:svg="http://www.w3.org/2000/svg"
   xmlns="http://www.w3.org/2000/svg"
   xmlns:sodipodi="http://sodipodi.sourceforge.net/DTD/sodipodi-0.dtd"
   xmlns:inkscape="http://www.inkscape.org/namespaces/inkscape"
   width="100mm"
   height="100.00002mm"
   viewBox="0 0 100 100.00002"
   version="1.1"
   id="svg8"
   inkscape:version="0.92.1 r15371"
   sodipodi:docname="php.svg">
  <defs
     id="defs2" />
  <sodipodi:namedview
     id="base"
     pagecolor="#f8c2fb"
     bordercolor="#666666"
     borderopacity="1.0"
     inkscape:pageopacity="0"
     inkscape:pageshadow="2"
     inkscape:zoom="0.35355339"
     inkscape:cx="-21.867435"
     inkscape:cy="190.4426"
     inkscape:document-units="mm"
     inkscape:current-layer="layer1"
     showgrid="false"
     inkscape:snap-midpoints="false"
     inkscape:snap-global="true"
     inkscape:object-paths="true"
     inkscape:window-width="1366"
     inkscape:window-height="706"
     inkscape:window-x="-8"
     inkscape:window-y="-8"
     inkscape:window-maximized="1"
     fit-margin-top="0"
     fit-margin-left="0"
     fit-margin-right="0"
     fit-margin-bottom="0" />
  <metadata
     id="metadata5">
    <rdf:RDF>
      <cc:Work
         rdf:about="">
        <dc:format>image/svg+xml</dc:format>
        <dc:type
           rdf:resource="http://purl.org/dc/dcmitype/StillImage" />
        <dc:title></dc:title>
      </cc:Work>
    </rdf:RDF>
  </metadata>
  <g
     inkscape:label="Layer 1"
     inkscape:groupmode="layer"
     id="layer1"
     transform="translate(-107.30387,-136.82919)">
    <path
       style="opacity:1;fill:#c427d8;fill-opacity:1;stroke:none;stroke-width:0.53957975;stroke-linecap:round;stroke-linejoin:round;stroke-miterlimit:4;stroke-dasharray:none"
       d="m 157.30386,136.82919 a 49.999952,49.999952 0 0 0 -49.99999,50.00001 49.999952,49.999952 0 0 0 49.99999,50.00001 49.999952,49.999952 0 0 0 50.00001,-50.00001 49.999952,49.999952 0 0 0 -50.00001,-50.00001 z m -4.7091,30.76405 h 5.92317 c -0.23061,1.16156 -1.47074,7.40674 -1.47074,7.40674 l 7.65059,-8.6e-4 c 3.05506,0 7.13902,2.14123 6.06433,6.84462 l -2.70705,13.62767 h -5.92488 l 2.52053,-12.68652 c 0.39255,-1.87128 -0.0207,-3.42632 -2.16461,-3.41805 h -6.30647 c 0,0 -2.73682,13.78059 -3.19814,16.1037 h -5.92404 c 1.84578,-9.29244 3.69155,-18.58488 5.53731,-27.8773 z m -25.32768,7.43411 h 13.20243 c 3.28419,0 7.72888,2.0483 7.78319,7.82085 -0.20017,7.91546 -6.13639,12.62234 -12.11926,12.62234 h -7.00292 l -1.47673,7.43413 h -5.92402 z m 47.72073,0 h 13.20243 c 3.28419,0 7.7289,2.0483 7.7832,7.82085 -0.20016,7.91546 -6.13638,12.62234 -12.11927,12.62234 h -7.0029 l -1.47674,7.43413 h -5.92403 z m -42.61979,4.14272 -2.38449,12.0029 h 5.23957 c 2.75216,0 6.46465,-1.48707 6.81467,-8.24692 0.0166,-2.28914 -1.37263,-3.75598 -5.03336,-3.75598 z m 47.72075,0 -2.38449,12.0029 h 5.23955 c 2.75216,0 6.46467,-1.48707 6.81469,-8.24692 0.0149,-2.28914 -1.37263,-3.75598 -5.03336,-3.75598 z"
       id="path4662"
       inkscape:connector-curvature="0" />
  </g>
</svg>
