<?xml version="1.0" encoding="UTF-8" standalone="no"?>
<!-- Created with Inkscape (http://www.inkscape.org/) -->

<svg
   xmlns:dc="http://purl.org/dc/elements/1.1/"
   xmlns:cc="http://creativecommons.org/ns#"
   xmlns:rdf="http://www.w3.org/1999/02/22-rdf-syntax-ns#"
   xmlns:svg="http://www.w3.org/2000/svg"
   xmlns="http://www.w3.org/2000/svg"
   xmlns:sodipodi="http://sodipodi.sourceforge.net/DTD/sodipodi-0.dtd"
   xmlns:inkscape="http://www.inkscape.org/namespaces/inkscape"
   width="60.39941mm"
   height="60.399422mm"
   viewBox="0 0 60.39941 60.399422"
   version="1.1"
   id="svg8"
   inkscape:version="0.92.1 r15371"
   sodipodi:docname="php.svg">
  <defs
     id="defs2" />
  <sodipodi:namedview
     id="base"
     pagecolor="#f8c2fb"
     bordercolor="#666666"
     borderopacity="1.0"
     inkscape:pageopacity="0"
     inkscape:pageshadow="2"
     inkscape:zoom="0.35355339"
     inkscape:cx="-21.867435"
     inkscape:cy="190.44261"
     inkscape:document-units="mm"
     inkscape:current-layer="layer1"
     showgrid="false"
     inkscape:snap-midpoints="false"
     inkscape:snap-global="true"
     inkscape:object-paths="true"
     inkscape:window-width="1280"
     inkscape:window-height="961"
     inkscape:window-x="-8"
     inkscape:window-y="-8"
     inkscape:window-maximized="1"
     fit-margin-top="0"
     fit-margin-left="0"
     fit-margin-right="0"
     fit-margin-bottom="0" />
  <metadata
     id="metadata5">
    <rdf:RDF>
      <cc:Work
         rdf:about="">
        <dc:format>image/svg+xml</dc:format>
        <dc:type
           rdf:resource="http://purl.org/dc/dcmitype/StillImage" />
        <dc:title></dc:title>
      </cc:Work>
    </rdf:RDF>
  </metadata>
  <g
     inkscape:label="Layer 1"
     inkscape:groupmode="layer"
     id="layer1"
     transform="translate(-107.30387,-176.42979)">
    <path
       style="opacity:1;fill:#ffffff;fill-opacity:1;stroke:none;stroke-width:0.32590297;stroke-linecap:round;stroke-linejoin:round;stroke-miterlimit:4;stroke-dasharray:none"
       d="m 137.50357,176.42979 a 30.199676,30.199676 0 0 0 -30.1997,30.19971 30.199676,30.199676 0 0 0 30.1997,30.19971 30.199676,30.199676 0 0 0 30.19971,-30.19971 30.199676,30.199676 0 0 0 -30.19971,-30.19971 z m -2.84427,18.5813 h 3.57756 c -0.13929,0.70158 -0.88832,4.47363 -0.88832,4.47363 l 4.62091,-5.2e-4 c 1.84524,0 4.31193,1.29329 3.66282,4.13411 l -1.63504,8.23103 h -3.57859 l 1.52238,-7.66258 c 0.2371,-1.13024 -0.0125,-2.06948 -1.30741,-2.06448 h -3.80907 c 0,0 -1.65302,8.32339 -1.93166,9.72654 h -3.57808 c 1.11484,-5.61258 2.22967,-11.22516 3.3445,-16.83773 z m -15.29777,4.49016 h 7.97419 c 1.98363,0 4.6682,1.23716 4.701,4.72375 -0.1209,4.78089 -3.70634,7.62382 -7.31996,7.62382 h -4.22972 l -0.89194,4.49017 h -3.57807 z m 28.82304,0 h 7.97419 c 1.98363,0 4.66821,1.23716 4.70101,4.72375 -0.1209,4.78089 -3.70634,7.62382 -7.31997,7.62382 h -4.22971 l -0.89194,4.49017 h -3.57808 z m -25.7421,2.50218 -1.44022,7.24968 h 3.16467 c 1.66229,0 3.90461,-0.89818 4.11602,-4.98109 0.01,-1.38263 -0.82906,-2.26859 -3.04012,-2.26859 z m 28.82305,0 -1.44022,7.24968 h 3.16466 c 1.66229,0 3.90462,-0.89818 4.11603,-4.98109 0.009,-1.38263 -0.82906,-2.26859 -3.04012,-2.26859 z"
       id="path4662"
       inkscape:connector-curvature="0" />
  </g>
</svg>
