<?xml version="1.0" encoding="UTF-8" standalone="no"?>
<!-- Created with Inkscape (http://www.inkscape.org/) -->

<svg
   xmlns:dc="http://purl.org/dc/elements/1.1/"
   xmlns:cc="http://creativecommons.org/ns#"
   xmlns:rdf="http://www.w3.org/1999/02/22-rdf-syntax-ns#"
   xmlns:svg="http://www.w3.org/2000/svg"
   xmlns="http://www.w3.org/2000/svg"
   xmlns:sodipodi="http://sodipodi.sourceforge.net/DTD/sodipodi-0.dtd"
   xmlns:inkscape="http://www.inkscape.org/namespaces/inkscape"
   width="99.999977mm"
   height="74.827843mm"
   viewBox="0 0 99.999978 74.827842"
   version="1.1"
   id="svg8"
   inkscape:version="0.92.1 r15371"
   sodipodi:docname="sass.svg">
  <defs
     id="defs2" />
  <sodipodi:namedview
     id="base"
     pagecolor="#f8c2fb"
     bordercolor="#666666"
     borderopacity="1.0"
     inkscape:pageopacity="0"
     inkscape:pageshadow="2"
     inkscape:zoom="0.35355339"
     inkscape:cx="192.57345"
     inkscape:cy="-349.5556"
     inkscape:document-units="mm"
     inkscape:current-layer="layer1"
     showgrid="false"
     inkscape:snap-midpoints="false"
     inkscape:snap-global="true"
     inkscape:object-paths="true"
     inkscape:window-width="1366"
     inkscape:window-height="706"
     inkscape:window-x="-8"
     inkscape:window-y="-8"
     inkscape:window-maximized="1"
     fit-margin-top="0"
     fit-margin-left="0"
     fit-margin-right="0"
     fit-margin-bottom="0" />
  <metadata
     id="metadata5">
    <rdf:RDF>
      <cc:Work
         rdf:about="">
        <dc:format>image/svg+xml</dc:format>
        <dc:type
           rdf:resource="http://purl.org/dc/dcmitype/StillImage" />
        <dc:title></dc:title>
      </cc:Work>
    </rdf:RDF>
  </metadata>
  <g
     inkscape:label="Layer 1"
     inkscape:groupmode="layer"
     id="layer1"
     transform="translate(-130.40031,20.93127)">
    <path
       style="opacity:1;fill:#c427d8;fill-opacity:1;stroke:none;stroke-width:0.47333741px;stroke-linecap:butt;stroke-linejoin:miter;stroke-opacity:1"
       d="m 176.14396,-20.93111 c -0.32011,-0.001 -0.64166,0.0027 -0.96423,0.01109 -8.88322,0.06966 -16.50721,3.479619 -24.16148,7.437499 -6.42855,3.269528 -11.20306,7.052088 -15.37791,11.8528477 -2.55903,2.9918331 -5.45814,7.624179 -5.22706,11.7437623 0.39727,3.849517 3.02258,7.024026 5.27143,9.308663 3.38964,3.570044 9.45902,7.121669 14.30921,11.024507 -4.90842,2.423739 -10.00998,5.515356 -13.0325,8.890792 -1.82214,1.759562 -2.99194,4.026787 -3.2431,6.944751 -0.2391,3.645979 1.27954,6.597471 3.64063,7.174943 2.57404,0.592675 5.40394,0.6912 8.36753,-0.376266 4.76689,-1.755044 8.2619,-5.097461 9.79772,-9.414051 1.91721,-4.804404 1.59288,-8.855997 0,-12.672872 1.84967,-1.076814 3.65362,-2.187926 5.60609,-3.187629 -0.9236,3.065176 -2.35118,8.871314 -0.0444,13.512302 0.85369,1.60664 1.49444,3.291731 3.75712,3.520447 1.44064,0.04192 2.53094,-0.717982 3.31337,-1.775015 1.46338,-2.055113 2.53372,-5.027323 3.78669,-7.5734 -0.0476,1.901203 -0.48281,3.557534 0.14795,5.887136 0.36238,1.068856 0.95244,1.875872 2.10044,2.041266 0.70039,0.0955 1.54479,-0.119773 2.98794,-1.627097 1.67115,-1.410062 7.43469,-13.51164 10.11759,-20.087257 0.49517,3.077138 1.54678,5.945605 2.98794,8.667991 -2.3112,3.297132 -4.90875,5.803728 -7.07048,8.993411 -0.20342,0.327541 -0.46696,1.091087 -0.26625,1.538347 0.27312,0.53659 1.0028,0.976094 1.68627,1.005843 3.37477,0.208433 6.33923,-0.784264 9.05258,-3.04711 2.32422,-2.580272 2.96254,-4.967747 1.06501,-10.05842 2.09752,-2.885077 4.04857,-6.551435 6.03505,-10.028837 0.30896,2.890156 1.36463,5.493558 2.69396,7.991266 -2.28072,1.993806 -4.62,4.16048 -5.71149,8.013455 -0.78325,3.065969 1.07014,4.071404 2.30752,4.049256 1.35997,0.02057 5.40794,-1.455669 8.04674,-4.700095 1.36958,-1.920499 1.63532,-4.3342 0.38458,-7.425481 3.45882,-1.854156 11.59954,-1.880488 15.33263,0.485355 2.31039,1.57595 4.42972,3.271383 4.48838,6.555539 -0.35401,2.352009 -1.08461,3.21355 -3.30319,4.760186 -0.21916,0.165195 -0.25431,0.417629 -0.14885,0.592594 0.0531,0.101508 0.22828,0.206716 0.50754,0.15532 2.95983,-0.738673 4.66748,-3.250684 5.01535,-5.863098 -0.0943,-3.587117 -1.82384,-7.069438 -5.38422,-9.052579 -4.78033,-2.824252 -11.31373,-3.06538 -17.60224,-0.110935 -0.85234,-1.62217 -1.66242,-3.089018 -2.01168,-4.607645 -1.08953,-4.613986 0.8449,-6.918098 0.91709,-8.431324 -0.0487,-1.132663 -3.92052,-1.167491 -6.09422,-0.103547 -0.48657,1.14479 -0.7323,2.427199 -0.94668,3.727533 -0.65776,1.597813 -3.60947,7.340806 -6.04892,11.064264 -1.30541,-2.587884 -1.3292,-3.49025 -1.51245,-4.249867 -0.72259,-3.689987 1.27458,-7.206079 1.11216,-7.524403 -0.26955,-1.227227 -5.70407,-0.94906 -6.09053,0.04159 -0.31592,0.798445 -0.47972,1.813313 -0.7137,2.857591 -3.17151,7.050016 -7.45605,16.999426 -9.62669,21.000652 -0.16584,-1.198462 -0.1399,-2.318715 -0.0179,-3.546335 0.39318,-2.25949 2.56742,-9.685928 2.49704,-10.230373 -0.1898,-1.041652 -1.93889,-2.210445 -3.41413,-0.774722 0.1755,-1.068938 0.25538,-2.191987 0.22466,-3.167295 -0.0179,-1.348888 -1.05527,-3.25384 -3.09426,-3.347565 -2.92566,-0.0063 -6.79379,2.904253 -8.93424,6.085898 -3.38819,1.776034 -8.56255,4.538482 -10.06582,5.369421 -1.67578,-1.721282 -4.11459,-3.725293 -6.14599,-5.295463 -4.81833,-3.729926 -9.66208,-7.343743 -9.46676,-12.188437 0.0757,-6.2188168 4.01488,-11.9602911 15.8568,-18.6376622 5.09271,-2.7160798 14.83989,-8.2157158 26.56607,-6.8633918 4.64496,0.790748 9.44196,2.704018 6.92256,10.176755 -4.26219,9.3999216 -14.30943,13.3241916 -21.0145,14.3045878 -4.16474,0.7206272 -8.60994,0.1660182 -11.11605,-2.1549785 -0.27096,-0.25635 -0.44367,-0.4832389 -0.64438,-0.7247975 -0.21977,-0.2520618 -0.4483,-0.3363681 -0.68781,-0.2828951 -0.33397,0.1061588 -0.39395,0.3495887 -0.39753,0.575957 -0.0161,0.4130585 0.0494,0.6569643 0.21911,0.9771813 2.38423,4.293119 6.94129,5.345746 12.79212,5.225205 5.13525,-0.449031 10.12022,-1.592208 14.81029,-4.1001008 4.68453,-2.8742981 9.63478,-7.1608605 11.42204,-13.8062927 1.73587,-6.1937405 0.13185,-10.0019155 -3.73862,-12.9603855 -3.52308,-2.471083 -8.02545,-3.552543 -12.82727,-3.567595 z m -4.12967,42.146447 c 0.36035,0.01977 0.66271,0.143745 0.69797,0.401226 0.27517,1.030473 -5.15591,16.221056 -6.37802,17.146462 -0.60991,0.543193 -1.13267,0.361437 -1.43204,-0.816322 -0.58564,-2.119344 -0.63056,-5.146603 0.67211,-8.96475 1.04638,-3.066976 2.76438,-5.934923 5.39252,-7.542892 0.26874,-0.159077 0.6871,-0.243504 1.04746,-0.223724 z m 32.45134,7.997736 c 1.25382,3.344801 -1.07672,6.226248 -3.82737,7.007616 0.10054,-2.35911 1.42903,-4.945558 3.82737,-7.007616 z m -52.4027,3.881921 c 0.85206,3.130532 0.74361,6.295346 -1.02064,9.481541 -2.01138,3.382767 -3.98713,4.804114 -6.73028,5.901927 -3.65884,1.1209 -5.33409,0.111257 -4.73336,-3.342946 0.65262,-2.954227 2.57944,-5.376119 5.4212,-7.406994 2.448,-1.823328 4.40041,-3.187675 7.06308,-4.633528 z m 39.29717,0.511242 c -0.41002,2.119023 -1.34476,5.054582 -5.07267,6.023958 1.64607,-2.277397 3.38174,-4.015757 5.07267,-6.023958 z"
       id="path4591"
       inkscape:connector-curvature="0" />
  </g>
</svg>
