<?xml version="1.0" encoding="UTF-8" standalone="no"?>
<!-- Created with Inkscape (http://www.inkscape.org/) -->

<svg
   xmlns:dc="http://purl.org/dc/elements/1.1/"
   xmlns:cc="http://creativecommons.org/ns#"
   xmlns:rdf="http://www.w3.org/1999/02/22-rdf-syntax-ns#"
   xmlns:svg="http://www.w3.org/2000/svg"
   xmlns="http://www.w3.org/2000/svg"
   xmlns:sodipodi="http://sodipodi.sourceforge.net/DTD/sodipodi-0.dtd"
   xmlns:inkscape="http://www.inkscape.org/namespaces/inkscape"
   width="55.897404mm"
   height="41.82682mm"
   viewBox="0 0 55.897404 41.82682"
   version="1.1"
   id="svg8"
   inkscape:version="0.92.1 r15371"
   sodipodi:docname="sass.svg">
  <defs
     id="defs2" />
  <sodipodi:namedview
     id="base"
     pagecolor="#f8c2fb"
     bordercolor="#666666"
     borderopacity="1.0"
     inkscape:pageopacity="0"
     inkscape:pageshadow="2"
     inkscape:zoom="0.35355339"
     inkscape:cx="17.210947"
     inkscape:cy="-688.96685"
     inkscape:document-units="mm"
     inkscape:current-layer="layer1"
     showgrid="false"
     inkscape:snap-midpoints="false"
     inkscape:snap-global="true"
     inkscape:object-paths="true"
     inkscape:window-width="1280"
     inkscape:window-height="961"
     inkscape:window-x="-8"
     inkscape:window-y="-8"
     inkscape:window-maximized="1"
     fit-margin-top="0"
     fit-margin-left="0"
     fit-margin-right="0"
     fit-margin-bottom="0" />
  <metadata
     id="metadata5">
    <rdf:RDF>
      <cc:Work
         rdf:about="">
        <dc:format>image/svg+xml</dc:format>
        <dc:type
           rdf:resource="http://purl.org/dc/dcmitype/StillImage" />
        <dc:title></dc:title>
      </cc:Work>
    </rdf:RDF>
  </metadata>
  <g
     inkscape:label="Layer 1"
     inkscape:groupmode="layer"
     id="layer1"
     transform="translate(-130.40031,-12.069752)">
    <path
       style="opacity:1;fill:#c427d8;fill-opacity:1;stroke:none;stroke-width:0.26458332px;stroke-linecap:butt;stroke-linejoin:miter;stroke-opacity:1"
       d="m 155.96982,12.069842 c -0.17893,-5.61e-4 -0.35867,0.0015 -0.53898,0.0062 -4.96549,0.03894 -9.2271,1.945017 -13.50564,4.157369 -3.59339,1.827581 -6.26222,3.941934 -8.59585,6.625434 -1.43043,1.672357 -3.05096,4.261718 -2.92179,6.564458 0.22206,2.15178 1.68954,3.926248 2.94659,5.203301 1.89472,1.995562 5.28735,3.980828 7.99848,6.162413 -2.74368,1.354807 -5.59532,3.082941 -7.28483,4.969722 -1.01853,0.983549 -1.67242,2.250869 -1.81281,3.881935 -0.13365,2.038008 0.71523,3.687815 2.03502,4.010607 1.43882,0.33129 3.02066,0.386363 4.67723,-0.210323 2.66457,-0.981024 4.61819,-2.849348 5.47667,-5.26221 1.07167,-2.685537 0.89038,-4.950272 0,-7.083806 1.03392,-0.601911 2.04228,-1.222994 3.13366,-1.781802 -0.51627,1.713354 -1.31425,4.958834 -0.0248,7.553026 0.47719,0.89807 0.83535,1.839992 2.10013,1.967838 0.80528,0.02343 1.41473,-0.401333 1.85209,-0.992187 0.81799,-1.148755 1.41628,-2.810143 2.11666,-4.233334 -0.0266,1.062723 -0.26988,1.988569 0.0827,3.290756 0.20256,0.597463 0.53239,1.048564 1.17409,1.141015 0.3915,0.05338 0.8635,-0.06695 1.67018,-0.909505 0.93413,-0.788188 4.1558,-7.552656 5.65547,-11.228255 0.27679,1.72004 0.86461,3.323439 1.67018,4.845182 -1.2919,1.843011 -2.74386,3.244133 -3.95221,5.027083 -0.11371,0.183087 -0.26102,0.609889 -0.14883,0.859896 0.15267,0.29994 0.56054,0.545611 0.94258,0.56224 1.88641,0.116509 3.54347,-0.438383 5.06016,-1.703255 1.29918,-1.442305 1.65598,-2.776842 0.59531,-5.622396 1.17246,-1.612683 2.26305,-3.662082 3.37344,-5.605859 0.1727,1.615522 0.76279,3.070756 1.50585,4.46691 -1.27486,1.114486 -2.58246,2.3256 -3.19257,4.479313 -0.43782,1.713797 0.59818,2.275809 1.28984,2.263429 0.76019,0.0115 3.0229,-0.813681 4.49792,-2.627231 0.76556,-1.073509 0.9141,-2.422705 0.21497,-4.150651 1.93339,-1.036425 6.48384,-1.051144 8.57054,0.271301 1.29145,0.880915 2.4761,1.828618 2.50889,3.664376 -0.19788,1.314712 -0.60627,1.796291 -1.8464,2.66082 -0.1225,0.09234 -0.14215,0.233444 -0.0832,0.331245 0.0297,0.05674 0.1276,0.115549 0.2837,0.08682 1.65447,-0.412899 2.609,-1.817048 2.80345,-3.27732 -0.0527,-2.005105 -1.01948,-3.951632 -3.00964,-5.060156 -2.67208,-1.578684 -6.32408,-1.713468 -9.83919,-0.06201 -0.47644,-0.906751 -0.92925,-1.726681 -1.12448,-2.575554 -0.60902,-2.579098 0.47228,-3.867037 0.51263,-4.712891 -0.0272,-0.633129 -2.19147,-0.652597 -3.40651,-0.05788 -0.27198,0.639908 -0.40934,1.356741 -0.52917,2.083594 -0.36767,0.893136 -2.0176,4.10332 -3.38119,6.184636 -0.72969,-1.44656 -0.74299,-1.950959 -0.84542,-2.375565 -0.40391,-2.062607 0.71246,-4.028011 0.62167,-4.205946 -0.15067,-0.685988 -3.18843,-0.5305 -3.40445,0.02325 -0.17659,0.44631 -0.26815,1.013595 -0.39894,1.597319 -1.77279,3.940776 -4.16774,9.502238 -5.38107,11.738819 -0.0927,-0.669909 -0.0782,-1.296101 -0.01,-1.982309 0.21978,-1.262996 1.43512,-5.414182 1.39578,-5.718513 -0.10609,-0.582256 -1.08379,-1.235581 -1.90841,-0.433049 0.0981,-0.597509 0.14275,-1.225264 0.12558,-1.770436 -0.01,-0.753993 -0.58987,-1.818812 -1.72961,-1.871202 -1.63537,-0.0035 -3.79755,1.623402 -4.99401,3.401859 -1.89391,0.992757 -4.78624,2.536894 -5.62653,3.001367 -0.93672,-0.962152 -2.29995,-2.082342 -3.43545,-2.960026 -2.69332,-2.084932 -5.40085,-4.104962 -5.29167,-6.81302 0.0423,-3.476157 2.24421,-6.685492 8.86354,-10.417969 2.84669,-1.518218 8.29511,-4.592372 14.84974,-3.836458 2.59641,0.442008 5.27781,1.511476 3.86953,5.688542 -2.38245,5.254312 -7.9986,7.447877 -11.74656,7.995893 -2.32798,0.402812 -4.81273,0.0928 -6.21358,-1.204577 -0.15146,-0.143293 -0.248,-0.270118 -0.36019,-0.405143 -0.12285,-0.140896 -0.25059,-0.188021 -0.38447,-0.158131 -0.18668,0.05934 -0.22021,0.195411 -0.22221,0.321945 -0.009,0.230889 0.0276,0.367226 0.12248,0.546219 1.33272,2.399742 3.88,2.988133 7.15046,2.920754 2.87047,-0.250997 5.65694,-0.890003 8.27857,-2.29185 2.61853,-1.606658 5.38559,-4.002735 6.38462,-7.717359 0.97031,-3.46214 0.0737,-5.590811 -2.08979,-7.244519 -1.96931,-1.381271 -4.48602,-1.985779 -7.17011,-1.994193 z m -2.30838,23.558769 c 0.20143,0.01105 0.37044,0.08035 0.39015,0.224275 0.15381,0.576008 -2.88202,9.067149 -3.56515,9.584427 -0.34092,0.303631 -0.63313,0.202034 -0.80047,-0.456303 -0.32736,-1.184658 -0.35247,-2.876817 0.37569,-5.011062 0.5849,-1.71436 1.54522,-3.317468 3.01428,-4.216281 0.15022,-0.08892 0.38407,-0.136112 0.5855,-0.125056 z m 18.13946,4.470527 c 0.70085,1.869657 -0.60186,3.480311 -2.1394,3.917075 0.0562,-1.318681 0.79879,-2.764438 2.1394,-3.917075 z m -29.29175,2.169893 c 0.47628,1.749886 0.41566,3.518935 -0.57051,5.299935 -1.12431,1.890879 -2.2287,2.685375 -3.76205,3.299024 -2.0452,0.626554 -2.98162,0.06219 -2.64583,-1.86862 0.3648,-1.651336 1.44184,-3.005111 3.03031,-4.140317 1.36837,-1.019193 2.45972,-1.781828 3.94808,-2.590022 z m 21.9661,0.285771 c -0.22919,1.184479 -0.75169,2.82538 -2.83549,3.367236 0.92011,-1.273006 1.8903,-2.244704 2.83549,-3.367236 z"
       id="path4591"
       inkscape:connector-curvature="0" />
  </g>
</svg>
