<?xml version="1.0" encoding="UTF-8" standalone="no"?>
<!-- Created with Inkscape (http://www.inkscape.org/) -->

<svg
   xmlns:dc="http://purl.org/dc/elements/1.1/"
   xmlns:cc="http://creativecommons.org/ns#"
   xmlns:rdf="http://www.w3.org/1999/02/22-rdf-syntax-ns#"
   xmlns:svg="http://www.w3.org/2000/svg"
   xmlns="http://www.w3.org/2000/svg"
   xmlns:sodipodi="http://sodipodi.sourceforge.net/DTD/sodipodi-0.dtd"
   xmlns:inkscape="http://www.inkscape.org/namespaces/inkscape"
   width="100mm"
   height="100mm"
   viewBox="0 0 99.999999 99.999999"
   version="1.1"
   id="svg8"
   inkscape:version="0.92.1 r15371"
   sodipodi:docname="wordpress.svg">
  <defs
     id="defs2" />
  <sodipodi:namedview
     id="base"
     pagecolor="#f8c2fb"
     bordercolor="#666666"
     borderopacity="1.0"
     inkscape:pageopacity="0"
     inkscape:pageshadow="2"
     inkscape:zoom="0.35355339"
     inkscape:cx="-230.07819"
     inkscape:cy="265.1247"
     inkscape:document-units="mm"
     inkscape:current-layer="layer1"
     showgrid="false"
     inkscape:snap-midpoints="false"
     inkscape:snap-global="true"
     inkscape:object-paths="true"
     inkscape:window-width="1366"
     inkscape:window-height="706"
     inkscape:window-x="-8"
     inkscape:window-y="-8"
     inkscape:window-maximized="1"
     fit-margin-top="0"
     fit-margin-left="0"
     fit-margin-right="0"
     fit-margin-bottom="0" />
  <metadata
     id="metadata5">
    <rdf:RDF>
      <cc:Work
         rdf:about="">
        <dc:format>image/svg+xml</dc:format>
        <dc:type
           rdf:resource="http://purl.org/dc/dcmitype/StillImage" />
        <dc:title></dc:title>
      </cc:Work>
    </rdf:RDF>
  </metadata>
  <g
     inkscape:label="Layer 1"
     inkscape:groupmode="layer"
     id="layer1"
     transform="translate(-142.95986,-193.311)">
    <path
       id="path4636"
       style="opacity:1;fill:#c427d8;fill-opacity:1;stroke:none;stroke-width:0.50635737;stroke-linecap:round;stroke-linejoin:round;stroke-miterlimit:4;stroke-dasharray:none"
       d="m 192.95987,200.25301 a 43.058046,43.058046 0 0 0 -35.97501,19.4582 c 5.02696,0.13935 9.92092,-0.0909 14.85464,-0.3391 0.74687,-0.0111 1.35735,0.92162 1.37927,1.68121 -0.002,1.09933 -0.69557,1.60261 -1.37927,1.72408 -1.7183,0.20468 -3.43233,0.30869 -5.17793,0.43149 l 15.70621,46.54329 9.43001,-28.24431 -6.70292,-18.27706 c -1.72206,-0.0702 -3.25658,-0.0522 -5.14175,-0.54295 -0.67927,-0.20376 -0.95023,-0.80064 -1.00111,-1.61262 -0.0271,-0.95368 0.65305,-1.80344 1.57359,-1.7679 7.6931,0.73838 15.36211,0.8127 22.99779,0 0.88262,-0.0789 1.9026,0.54105 1.91742,1.74598 0.0374,1.43064 -0.82351,1.6719 -1.55166,1.7679 -1.76556,0.22091 -3.41026,0.32085 -5.06457,0.43054 l 15.64713,46.01653 7.23158,-24.46373 c 0.51239,-2.41016 0.41151,-5.38817 -0.0752,-7.6202 -0.92511,-3.53502 -2.60002,-6.96006 -4.74071,-10.33301 -1.6099,-2.47329 -2.68849,-4.89124 -2.65183,-7.52877 0.0868,-5.0852 4.18807,-7.95445 7.7726,-7.6202 0.0413,0.004 0.0826,0.009 0.12387,0.0129 a 43.058046,43.058046 0 0 0 -29.17206,-11.46175 z m 37.71812,22.38532 c 0.14949,1.47163 0.29267,2.94868 0.29147,4.48736 0.084,3.96805 -0.9523,8.65796 -1.50118,10.2606 l -14.96894,43.14658 a 43.058046,43.058046 0 0 0 21.51851,-37.22186 43.058046,43.058046 0 0 0 -5.33986,-20.67268 z m -76.94601,3.01283 a 43.058046,43.058046 0 0 0 -3.83011,17.65985 43.058046,43.058046 0 0 0 24.47612,38.7821 z m 40.02039,21.43947 -12.89244,37.51523 a 43.058046,43.058046 0 0 0 12.09994,1.76313 43.058046,43.058046 0 0 0 14.26217,-2.48133 z m -0.7925,-53.77963 a 50.000245,50.000245 0 0 0 -50.00001,50.00001 50.000245,50.000245 0 0 0 50.00001,49.99999 50.000245,50.000245 0 0 0 49.99999,-49.99999 50.000245,50.000245 0 0 0 -49.99999,-50.00001 z m 0,2.12129 a 47.878953,47.878953 0 0 1 47.87872,47.87872 47.878953,47.878953 0 0 1 -47.87872,47.8787 47.878953,47.878953 0 0 1 -47.87872,-47.8787 47.878953,47.878953 0 0 1 47.87872,-47.87872 z"
       inkscape:connector-curvature="0" />
  </g>
</svg>
