<?xml version="1.0" encoding="UTF-8" standalone="no"?>
<!-- Created with Inkscape (http://www.inkscape.org/) -->

<svg
   xmlns:dc="http://purl.org/dc/elements/1.1/"
   xmlns:cc="http://creativecommons.org/ns#"
   xmlns:rdf="http://www.w3.org/1999/02/22-rdf-syntax-ns#"
   xmlns:svg="http://www.w3.org/2000/svg"
   xmlns="http://www.w3.org/2000/svg"
   xmlns:sodipodi="http://sodipodi.sourceforge.net/DTD/sodipodi-0.dtd"
   xmlns:inkscape="http://www.inkscape.org/namespaces/inkscape"
   width="54.251991mm"
   height="54.251991mm"
   viewBox="0 0 54.251991 54.251991"
   version="1.1"
   id="svg8"
   inkscape:version="0.92.1 r15371"
   sodipodi:docname="wordpress.svg">
  <defs
     id="defs2" />
  <sodipodi:namedview
     id="base"
     pagecolor="#f8c2fb"
     bordercolor="#666666"
     borderopacity="1.0"
     inkscape:pageopacity="0"
     inkscape:pageshadow="2"
     inkscape:zoom="0.35355339"
     inkscape:cx="-230.07819"
     inkscape:cy="265.1247"
     inkscape:document-units="mm"
     inkscape:current-layer="layer1"
     showgrid="false"
     inkscape:snap-midpoints="false"
     inkscape:snap-global="true"
     inkscape:object-paths="true"
     inkscape:window-width="1280"
     inkscape:window-height="961"
     inkscape:window-x="-8"
     inkscape:window-y="-8"
     inkscape:window-maximized="1"
     fit-margin-top="0"
     fit-margin-left="0"
     fit-margin-right="0"
     fit-margin-bottom="0" />
  <metadata
     id="metadata5">
    <rdf:RDF>
      <cc:Work
         rdf:about="">
        <dc:format>image/svg+xml</dc:format>
        <dc:type
           rdf:resource="http://purl.org/dc/dcmitype/StillImage" />
        <dc:title></dc:title>
      </cc:Work>
    </rdf:RDF>
  </metadata>
  <g
     inkscape:label="Layer 1"
     inkscape:groupmode="layer"
     id="layer1"
     transform="translate(-142.95986,-239.05901)">
    <path
       id="path4636"
       style="opacity:1;fill:#ffffff;fill-opacity:1;stroke:none;stroke-width:0.27470896;stroke-linecap:round;stroke-linejoin:round;stroke-miterlimit:4;stroke-dasharray:none"
       d="m 170.08586,242.82519 a 23.359847,23.359847 0 0 0 -19.51716,10.55646 c 2.72723,0.0756 5.3823,-0.0493 8.05894,-0.18397 0.40519,-0.006 0.73639,0.5 0.74828,0.91209 -0.001,0.59641 -0.37736,0.86945 -0.74828,0.93535 -0.93221,0.11104 -1.86211,0.16747 -2.80913,0.23409 l 8.52093,25.25066 5.11597,-15.3231 -3.63647,-9.91567 c -0.93425,-0.0381 -1.76676,-0.0283 -2.7895,-0.29456 -0.36852,-0.11054 -0.51552,-0.43436 -0.54312,-0.87488 -0.0147,-0.51739 0.35429,-0.9784 0.8537,-0.95912 4.17366,0.40059 8.33425,0.44091 12.47676,0 0.47884,-0.0428 1.0322,0.29353 1.04024,0.94723 0.0203,0.77615 -0.44677,0.90704 -0.84181,0.95912 -0.95785,0.11985 -1.85013,0.17407 -2.74763,0.23358 l 8.48888,24.96488 3.92328,-13.27206 c 0.27798,-1.30756 0.22325,-2.92319 -0.0408,-4.13411 -0.50189,-1.91782 -1.41056,-3.77597 -2.57193,-5.60586 -0.8734,-1.34181 -1.45856,-2.6536 -1.43867,-4.08451 0.0471,-2.75882 2.27211,-4.31545 4.21679,-4.13411 0.0224,0.002 0.0448,0.005 0.0672,0.007 a 23.359847,23.359847 0 0 0 -15.82642,-6.21823 z m 20.46283,12.14448 c 0.0811,0.79839 0.15878,1.59972 0.15813,2.43448 0.0456,2.15275 -0.51664,4.69712 -0.81442,5.56658 l -8.12095,23.40788 a 23.359847,23.359847 0 0 0 11.67422,-20.1936 23.359847,23.359847 0 0 0 -2.89698,-11.21534 z m -41.74474,1.63452 a 23.359847,23.359847 0 0 0 -2.07791,9.58082 23.359847,23.359847 0 0 0 13.27878,21.04006 z m 21.71186,11.63134 -6.99441,20.35276 a 23.359847,23.359847 0 0 0 6.56446,0.95653 23.359847,23.359847 0 0 0 7.73751,-1.34617 z m -0.42995,-29.17652 a 27.126128,27.126128 0 0 0 -27.126,27.126 27.126128,27.126128 0 0 0 27.126,27.12599 27.126128,27.126128 0 0 0 27.12599,-27.12599 27.126128,27.126128 0 0 0 -27.12599,-27.126 z m 0,1.15084 a 25.975285,25.975285 0 0 1 25.97516,25.97516 25.975285,25.975285 0 0 1 -25.97516,25.97515 25.975285,25.975285 0 0 1 -25.97516,-25.97515 25.975285,25.975285 0 0 1 25.97516,-25.97516 z"
       inkscape:connector-curvature="0" />
  </g>
</svg>
